# xmcd
#
# Track frame offsets:
#	151
#	15134
#	23903
#	35602
#	45907
#	54822
#	64867
#	75462
#	86985
#	96262
#	107259
#	118972
#	130549
#	139680
#	150439
#	160720
#	171153
#	181890
#	192313
#	202524
#	213695
#	224102
#
# Disc length: 3128 seconds
#
# Revision: 0
# Processed by: cddbd v1.5.2PL0 Copyright (c) Steve Scherf et al.
# Submitted via: EasyCDDAExtractor 11.5.0.1
#
DISCID=1b0c3616
DTITLE=Dr. John - Who Was Mac Rebennack?
DYEAR=2009
DGENRE=Blues
TTITLE0=Storm Warning
TTITLE1=Bad Neighborhood
TTITLE2=Down The River
TTITLE3=Sahara
TTITLE4=It Ain't No Use
TTITLE5=Remember Me
TTITLE6=Morgus The Magnificent
TTITLE7=South Of The Border Town
TTITLE8=Something Special
TTITLE9=Lonely Boy
TTITLE10=Good Times
TTITLE11=You Told Me You Don't Love Me
TTITLE12=Because I Do
TTITLE13=Feedbag
TTITLE14=Row Row My Boat
TTITLE15=Keeps Dragging Me On
TTITLE16=Foolish Little Girl
TTITLE17=I Wanna
TTITLE18=Aw! Who?
TTITLE19=Mercy
TTITLE20=Symphony Two
TTITLE21=The Honeydripper Part 2
EXTD=
EXTT0=
EXTT1=
EXTT2=
EXTT3=
EXTT4=
EXTT5=
EXTT6=
EXTT7=
EXTT8=
EXTT9=
EXTT10=
EXTT11=
EXTT12=
EXTT13=
EXTT14=
EXTT15=
EXTT16=
EXTT17=
EXTT18=
EXTT19=
EXTT20=
EXTT21=
PLAYORDER=
